<?xml version="1.0" encoding="utf-8"?>
<!-- Generator: Adobe Illustrator 23.0.5, SVG Export Plug-In . SVG Version: 6.00 Build 0)  -->
<svg version="1.1" id="Layer_1" xmlns="http://www.w3.org/2000/svg" xmlns:xlink="http://www.w3.org/1999/xlink" x="0px" y="0px"
	 viewBox="0 0 533.8 89.4" style="enable-background:new 0 0 533.8 89.4;" xml:space="preserve">
<style type="text/css">
	.st0{fill:#FFFFFF;}
	.st1{fill:#FBB040;}
</style>
<g>
	<path class="st0" d="M13.9,18.2c3.5-0.7,9-1.3,14.7-1.3c8,0,13.2,1.4,17.1,4.5c3.2,2.4,5.2,6.1,5.2,11c0,6-4,11.3-10.5,13.7v0.2
		c5.9,1.5,12.8,6.4,12.8,15.6c0,5.4-2.1,9.4-5.3,12.5c-4.3,4-11.3,5.8-21.5,5.8c-5.5,0-9.8-0.4-12.5-0.7V18.2z M22,43.6h7.3
		c8.5,0,13.5-4.4,13.5-10.4c0-7.3-5.5-10.1-13.7-10.1c-3.7,0-5.8,0.3-7.1,0.6V43.6z M22,73.4c1.6,0.3,3.9,0.4,6.7,0.4
		c8.3,0,16-3,16-12.1c0-8.5-7.3-12-16-12H22V73.4z"/>
	<path class="st0" d="M63.9,18.2c4.1-0.8,9.9-1.3,15.4-1.3c8.6,0,14.1,1.6,18,5.1c3.1,2.8,4.9,7,4.9,11.8c0,8.2-5.2,13.7-11.7,15.9
		v0.3c4.8,1.7,7.7,6.1,9.1,12.5c2,8.7,3.5,14.7,4.8,17.1h-8.3c-1-1.8-2.4-7.1-4.2-14.9c-1.8-8.6-5.2-11.8-12.5-12.1h-7.6v26.9h-8
		V18.2z M71.9,46.5h8.2c8.6,0,14-4.7,14-11.8c0-8-5.8-11.5-14.3-11.6c-3.9,0-6.6,0.4-7.9,0.7V46.5z"/>
	<path class="st0" d="M124.1,59.9l-6.5,19.6h-8.3l21.1-62.2h9.7l21.2,62.2h-8.6l-6.6-19.6H124.1z M144.4,53.7l-6.1-17.9
		c-1.4-4.1-2.3-7.7-3.2-11.3h-0.2c-0.9,3.7-1.9,7.5-3.1,11.3l-6.1,18H144.4z"/>
	<path class="st0" d="M170.5,79.5V17.3h8.8l19.9,31.5c4.6,7.3,8.2,13.8,11.2,20.2l0.2-0.1c-0.7-8.3-0.9-15.9-0.9-25.6v-26h7.6v62.2
		H209l-19.7-31.5c-4.3-6.9-8.5-14-11.6-20.8l-0.3,0.1c0.5,7.8,0.6,15.3,0.6,25.6v26.6H170.5z"/>
	<path class="st0" d="M231.1,18.2c4.9-0.7,10.7-1.3,17.1-1.3c11.5,0,19.7,2.7,25.2,7.7c5.5,5.1,8.8,12.3,8.8,22.3
		c0,10.1-3.1,18.4-8.9,24.2c-5.8,5.8-15.4,8.9-27.5,8.9c-5.7,0-10.5-0.3-14.6-0.7V18.2z M239.2,73.1c2,0.4,5,0.5,8.1,0.5
		c17.2,0,26.5-9.6,26.5-26.4c0.1-14.7-8.2-24-25.2-24c-4.2,0-7.3,0.4-9.4,0.8V73.1z"/>
	<path class="st0" d="M324.8,50.3h-24.2v22.4h26.9v6.7h-35V17.3h33.6v6.7h-25.5v19.6h24.2V50.3z"/>
	<path class="st0" d="M337.9,18.2c4.9-0.7,10.7-1.3,17.1-1.3c11.5,0,19.7,2.7,25.2,7.7c5.5,5.1,8.8,12.3,8.8,22.3
		c0,10.1-3.1,18.4-8.9,24.2c-5.8,5.8-15.4,8.9-27.5,8.9c-5.7,0-10.5-0.3-14.6-0.7V18.2z M346,73.1c2,0.4,5,0.5,8.1,0.5
		c17.2,0,26.5-9.6,26.5-26.4c0.1-14.7-8.2-24-25.2-24c-4.2,0-7.3,0.4-9.4,0.8V73.1z"/>
	<path class="st1" d="M410.4,29.1h-16.7V17.3h47.8v11.8h-17v50.4h-14.1V29.1z"/>
	<path class="st1" d="M463.1,17.3v62.2H449V17.3H463.1z"/>
	<path class="st1" d="M508,79.5l-5.6-11.3c-2.3-4.3-3.8-7.6-5.5-11.2h-0.2c-1.3,3.6-2.9,6.8-4.8,11.2l-5.2,11.3h-16l18-31.5
		l-17.3-30.7h16.1l5.4,11.3c1.8,3.8,3.2,6.8,4.7,10.3h0.2c1.5-4,2.7-6.7,4.2-10.3l5.3-11.3h16l-17.5,30.3l18.4,31.8H508z"/>
</g>
<g>
</g>
<g>
</g>
<g>
</g>
<g>
</g>
<g>
</g>
<g>
</g>
</svg>
